# xmcd database file
#
# Track frame offsets:
# 150
# 21255
# 39638
# 48974
# 78661
# 99738
# 108960
# 132346
# 148050
# 164112
# 175620
# 187966
# 212389
# 226337
# 234020
# 246575
# 257305
# 276487
# 289824
# 310381
#
# Disc length: 4268 seconds
#
# Revision: 1
# Processed by: cddbd v1.5PL3 Copyright (c) Steve Scherf et al.
# Submitted via: CD-Runner 2004.04
#
DISCID=1e10aa14
DTITLE=The Dingwall Gaelic Choir - Going Home
DYEAR=2002
DGENRE=Celtic
TTITLE0=Co-Eismealach (Co-dependence)
TTITLE1=Mháiri Hhín Mheall-Shuileach (Mary of the Bewitching Eyes)
TTITLE2=O Hí Rí Rí Tha E Tighinn (O Hi Ri Ri, He is Coming)
TTITLE3=Eilean Beag Donn A'Chuain (The Little Brown Isle of the Seas
TTITLE4=Cumha Mhiccriomain (MacCrimmon's Lament)
TTITLE5=Cailleach Liath Ratharsaidh - Bodaich Na H-odh
TTITLE6=Och Nan Och's Mi Fo Léireadh (Alas And I Am Distressed)
TTITLE7=Gradh Geal Mo Chridh (Eriskay Love Lilt)
TTITLE8=Deanaibh Astar (The Slaves Chorus from "Nabucco")
TTITLE9=Home is A Special Kind of Feeling
TTITLE10=Border Ballad
TTITLE11=Goin' Home (Largo from New World Symphony)
TTITLE12=You'll Never Walk Alone
TTITLE13=A Gaelic Blessing
TTITLE14=All in the April Evening
TTITLE15=All Through the Night
TTITLE16=Reubadh Na Mara (The Ravaging of the Sea)
TTITLE17=Eilean Mhanain (The Isle of Man)
TTITLE18=Fagail Liosmore (Leaving Lismore)
TTITLE19=Sabhal Ia'n 'Ic Uisdean - Theid Thu Null Air A'Bheinn
EXTD=
EXTT0=John Angus MacLeod - Anne Macdearmid
EXTT1=
EXTT2=
EXTT3=Donald Morrison
EXTT4=
EXTT5=
EXTT6=Mary MacLeod
EXTT7=Marjorie Kennedy Fraser Collection
EXTT8=Verdi
EXTT9=John Rutter
EXTT10=Sir Walter Scott
EXTT11=Anton Dvorak, words by Williams Arms Fisher
EXTT12=Oscar Hammerstein 2nd and Richard Rodgers
EXTT13=John Rutter
EXTT14=Hugh S. Robertson
EXTT15=traditional Welsh
EXTT16=
EXTT17=
EXTT18=
EXTT19=
PLAYORDER=
